<?xml version="1.0" standalone="no"?>
<!DOCTYPE svg PUBLIC "-//W3C//DTD SVG 20010904//EN"
 "http://www.w3.org/TR/2001/REC-SVG-20010904/DTD/svg10.dtd">
<svg version="1.0" xmlns="http://www.w3.org/2000/svg"
 width="1228.000000pt" height="1000.000000pt" viewBox="0 0 1228.000000 1000.000000"
 preserveAspectRatio="xMidYMid meet">
<metadata>
Created by potrace 1.15, written by Peter Selinger 2001-2017
</metadata>
<g transform="translate(0.000000,1000.000000) scale(0.100000,-0.100000)"
fill="#000000" stroke="none">
<path d="M6172 8238 c-74 -123 -222 -377 -222 -381 0 -2 -24 -45 -54 -94 -29
-49 -64 -109 -78 -133 -24 -43 -58 -101 -184 -315 -32 -55 -66 -114 -76 -132
-9 -17 -61 -106 -113 -198 -53 -92 -95 -168 -93 -170 2 -3 30 42 63 98 32 56
98 170 146 252 285 490 618 1065 636 1098 2 4 2 7 -1 7 -2 0 -13 -15 -24 -32z"/>
<path d="M2556 5661 c-9 -16 -16 -37 -16 -46 0 -8 -4 -15 -10 -15 -5 0 -9 -3
-8 -7 1 -5 -4 -33 -11 -64 -14 -59 -10 -226 8 -344 5 -33 14 -91 20 -130 6
-38 16 -99 21 -135 6 -36 15 -92 20 -125 5 -33 14 -87 20 -120 14 -80 27 -156
39 -235 6 -36 15 -90 20 -120 5 -30 7 -58 4 -62 -2 -5 -1 -8 4 -8 4 0 9 -25
11 -56 2 -30 7 -67 13 -80 5 -14 9 -44 9 -67 0 -23 4 -58 9 -77 12 -45 21
-147 30 -330 4 -80 9 -138 10 -130 4 16 7 0 40 -194 24 -140 28 -201 17 -256
l-7 -35 20 23 c22 25 36 29 27 7 -3 -8 -2 -15 3 -15 5 0 11 -26 14 -57 3 -32
12 -101 20 -153 18 -113 16 -191 -6 -243 -9 -20 -16 -40 -16 -42 -1 -3 -13
-28 -28 -56 -16 -29 -34 -63 -42 -78 -7 -14 -38 -66 -69 -116 -30 -49 -66
-110 -80 -135 -14 -25 -36 -62 -49 -82 -12 -21 -23 -40 -23 -43 0 -3 -27 -50
-60 -105 -33 -55 -60 -101 -60 -104 0 -2 -36 -66 -80 -141 -45 -76 -79 -139
-77 -142 3 -2 23 27 44 64 34 58 346 595 493 848 25 44 64 107 85 140 l38 60
9 -28 c6 -15 14 -24 20 -21 7 4 8 2 4 -5 -4 -6 7 -30 25 -54 38 -49 56 -69 44
-48 -5 9 -4 12 3 7 7 -4 12 -13 12 -19 1 -15 100 -86 160 -114 25 -12 66 -26
92 -32 59 -14 339 -15 318 -1 -11 7 -8 9 15 9 46 0 98 6 118 16 34 15 191 11
223 -5 43 -22 51 -32 58 -75 9 -55 25 -265 35 -475 5 -96 13 -191 19 -210 6
-19 14 -45 17 -57 4 -13 12 -24 19 -25 6 0 -20 -4 -59 -8 -38 -4 -446 -4 -906
-2 -459 3 -847 2 -862 -2 -15 -3 -27 -11 -27 -17 0 -6 4 -7 10 -4 6 3 10 3 10
-2 0 -31 55 -33 879 -33 852 0 827 1 934 -36 9 -4 17 -10 17 -14 0 -4 10 -10
23 -14 12 -3 38 -20 57 -39 104 -97 185 -146 330 -199 47 -17 112 -40 145 -52
33 -12 74 -30 92 -39 18 -9 47 -18 65 -19 42 -1 -75 -15 -162 -18 l-65 -3 65
-8 c154 -18 577 -135 725 -199 11 -5 49 -19 85 -31 36 -12 84 -30 108 -40 24
-11 56 -20 70 -20 17 -1 5 -6 -28 -13 l-55 -12 40 -8 c22 -4 67 -16 100 -26
84 -25 244 -71 280 -81 144 -37 205 -49 255 -49 58 0 187 22 225 39 11 5 43
13 70 19 44 8 331 79 410 101 29 7 27 8 -25 18 -30 6 -45 11 -32 12 25 1 52 9
262 77 74 23 169 53 210 64 41 12 85 26 98 31 13 5 36 9 52 9 16 0 32 5 35 10
3 6 24 10 45 10 22 0 49 4 62 9 35 13 127 34 154 34 14 0 27 3 29 8 3 4 42 11
88 15 75 7 79 8 42 15 -22 4 -73 8 -113 8 -97 1 -90 14 18 34 8 2 24 8 34 14
10 6 27 8 37 6 11 -3 19 0 19 6 0 6 13 11 28 11 16 0 32 3 36 7 4 4 38 20 74
35 37 15 63 27 57 28 -5 0 12 11 39 25 45 23 108 66 131 90 36 38 32 43 -7 9
-77 -67 -148 -97 -453 -194 -159 -50 -384 -122 -500 -160 -115 -38 -409 -132
-651 -209 l-442 -141 -268 99 c-148 54 -375 138 -504 186 -129 48 -343 126
-475 175 -692 254 -669 244 -769 352 -68 73 -118 161 -140 251 -10 38 -21 184
-31 425 -9 202 -18 372 -20 378 -4 12 -126 -7 -408 -61 -145 -29 -204 -31
-299 -10 -107 22 -192 70 -279 155 -123 121 -144 176 -199 519 -22 135 -71
442 -110 681 -279 1717 -272 1670 -267 1765 3 58 12 109 26 144 23 61 21 80
-3 32z"/>
<path d="M2922 5567 c-27 -32 -52 -106 -52 -154 0 -57 22 -228 47 -363 8 -47
19 -110 24 -140 4 -30 17 -109 29 -175 12 -66 24 -136 26 -155 7 -51 21 -141
40 -255 9 -55 17 -111 19 -125 2 -14 11 -68 20 -120 9 -52 29 -178 45 -280 15
-102 42 -268 59 -370 17 -102 35 -214 41 -250 6 -36 15 -87 20 -115 5 -27 14
-83 21 -124 28 -180 102 -254 244 -246 72 4 115 10 175 25 37 9 306 51 450 70
132 17 206 -11 257 -97 35 -61 34 -51 71 -838 6 -136 11 -166 29 -201 34 -64
90 -105 194 -142 52 -19 101 -36 109 -40 8 -3 20 -6 25 -7 6 -1 26 -9 46 -17
19 -9 47 -20 62 -23 15 -4 30 -11 32 -16 3 -4 12 -6 20 -2 8 3 15 1 15 -5 0
-5 10 -12 23 -15 38 -9 200 -66 233 -82 18 -8 37 -15 43 -15 10 0 66 -22 103
-41 10 -5 25 -9 33 -9 8 0 15 -4 15 -9 0 -5 15 -11 33 -15 36 -7 209 -68 274
-97 24 -11 49 -19 57 -19 8 0 18 -5 21 -10 3 -6 15 -10 26 -10 10 0 27 -4 37
-9 22 -12 144 -59 202 -77 25 -8 54 -19 65 -23 11 -5 33 -14 48 -20 54 -22
227 -5 227 21 0 5 11 8 25 8 14 0 33 4 43 9 23 11 78 31 127 45 22 6 45 15 52
19 7 4 28 8 47 9 19 1 33 5 30 10 -3 4 3 8 12 8 10 0 31 4 48 10 119 38 164
52 181 60 22 10 184 63 200 66 27 5 108 28 175 51 87 28 92 30 103 32 4 0 24
8 44 16 43 18 181 64 268 89 186 54 281 92 304 120 12 14 10 14 -18 0 -16 -8
-112 -41 -213 -74 -366 -117 -761 -244 -1143 -367 -214 -69 -397 -126 -405
-125 -8 1 -148 50 -310 110 -162 60 -536 199 -830 307 -294 109 -551 206 -572
216 -20 10 -45 30 -56 44 -46 58 -50 91 -72 575 -19 425 -23 469 -42 509 -22
46 -85 94 -139 106 -44 10 -311 -25 -582 -76 -89 -17 -184 -30 -210 -30 -60 0
-128 37 -162 89 -26 40 -28 51 -185 1022 -103 642 -155 959 -235 1455 -28 168
-27 207 5 263 20 33 21 42 2 19z"/>
<path d="M7996 5482 c-11 -43 -50 -576 -44 -594 4 -12 75 -38 105 -38 12 0 32
-4 45 -9 13 -5 55 -14 93 -21 88 -16 123 -33 131 -66 4 -14 -3 -76 -16 -137
-12 -62 -26 -132 -31 -157 -4 -25 -31 -155 -59 -290 -28 -135 -55 -267 -60
-295 -5 -27 -14 -72 -20 -100 -5 -27 -13 -63 -16 -80 -3 -16 -13 -64 -21 -105
-9 -41 -19 -93 -23 -115 -4 -22 -15 -78 -25 -124 -10 -51 -13 -87 -7 -93 19
-19 592 -127 592 -112 0 2 12 62 26 132 14 70 79 391 144 714 66 323 124 605
130 628 10 37 14 40 44 40 19 0 92 -11 162 -25 174 -34 189 -33 204 8 28 76
179 529 182 544 4 23 125 -3 -1362 289 -69 13 -135 26 -146 29 -17 4 -23 -1
-28 -23z"/>
<path d="M6763 5267 c-61 -50 -115 -99 -118 -107 -4 -8 -11 -76 -16 -150 -6
-74 -14 -189 -19 -255 -5 -66 -12 -160 -15 -210 l-6 -90 45 -60 c26 -33 69
-83 96 -111 58 -59 56 -59 276 -74 82 -6 165 -15 185 -21 58 -18 79 -89 39
-129 -26 -26 -10 -26 -385 10 -55 5 -140 13 -189 16 l-88 7 6 -169 c3 -93 10
-202 14 -243 7 -72 8 -75 37 -84 32 -9 157 -21 395 -36 80 -5 152 -12 160 -14
8 -3 80 -8 160 -11 l145 -6 31 28 c18 15 70 60 118 100 79 67 86 76 86 110 0
38 8 138 35 475 l15 189 -100 113 c-114 130 -80 116 -345 135 -180 13 -184 14
-213 40 -59 56 11 147 96 125 65 -18 592 -43 592 -28 0 17 -78 475 -82 478 -3
2 -810 66 -833 65 -5 0 -60 -42 -122 -93z"/>
<path d="M5988 5341 c-69 -3 -130 -9 -134 -13 -6 -7 3 -318 27 -892 6 -137 8
-270 4 -297 -8 -57 -40 -94 -95 -110 -52 -16 -120 14 -143 62 -16 36 -17 54
-48 914 -6 171 -13 312 -14 313 -2 2 -112 1 -244 -3 -161 -5 -241 -11 -244
-19 -4 -10 4 -311 23 -871 5 -137 12 -338 15 -445 3 -107 8 -206 11 -220 7
-33 178 -197 230 -221 35 -16 50 -17 94 -9 29 6 152 10 274 11 157 0 256 5
340 18 l120 17 93 100 c51 54 96 110 100 124 6 24 -6 406 -45 1375 l-7 170
-115 1 c-63 0 -172 -2 -242 -5z"/>
<path d="M4063 4843 c38 -10 14 -24 -38 -22 -30 1 -58 0 -62 -4 -3 -4 28 -7
70 -7 83 0 102 -10 113 -58 14 -67 24 -122 34 -192 6 -41 15 -97 20 -125 5
-27 12 -72 16 -100 3 -27 10 -72 15 -100 4 -27 11 -72 14 -100 4 -27 10 -59
15 -70 9 -22 19 -97 29 -220 6 -75 7 -77 14 -37 12 70 17 130 9 102 -11 -34
-36 125 -28 171 5 27 4 30 -4 14 -8 -15 -9 -5 -6 40 2 33 1 51 -3 40 -7 -17
-8 -16 -15 8 -4 16 -4 45 -2 65 5 32 4 33 -4 12 -7 -19 -9 -11 -6 35 2 34 1
51 -4 40 -9 -24 -34 132 -33 215 0 42 -2 49 -8 30 -6 -17 -8 -9 -5 28 2 30 0
48 -4 42 -10 -16 -21 78 -15 121 4 29 3 30 -4 9 -9 -25 -9 -25 -10 5 -2 44
-11 51 -66 57 -27 3 -42 4 -32 1z"/>
<path d="M3890 4428 c-19 -5 -42 -9 -50 -10 -8 0 -53 -7 -100 -15 -97 -16
-173 -28 -278 -44 -93 -13 -142 -32 -62 -23 30 3 87 12 125 19 39 7 124 21
190 30 66 9 133 20 149 25 31 10 71 -4 61 -20 -3 -5 -1 -27 5 -48 5 -22 12
-59 14 -83 8 -77 25 -182 41 -259 9 -41 18 -97 21 -124 2 -27 6 -51 9 -54 13
-13 14 9 4 59 -12 64 -29 160 -35 209 -9 76 -46 296 -52 310 -3 8 -4 21 -3 28
1 6 1 12 -1 11 -2 -1 -19 -5 -38 -11z"/>
<path d="M3348 4283 c-3 -40 26 -259 61 -458 12 -66 28 -172 36 -235 19 -139
47 -272 53 -245 2 10 -1 42 -7 70 -6 27 -12 70 -12 95 -1 25 -6 51 -12 58 -5
7 -7 31 -4 53 3 23 3 58 -1 78 l-6 36 -8 -30 c-5 -20 -6 -12 -3 28 2 31 0 55
-5 52 -13 -8 -22 51 -16 108 3 33 2 43 -3 27 -7 -21 -9 -15 -15 35 -3 33 -11
75 -17 93 -6 18 -11 69 -12 114 -1 52 -4 72 -9 57 -5 -14 -6 2 -4 39 4 66 -11
89 -16 25z"/>
<path d="M5255 3229 c-415 -13 -372 -2 -484 -117 l-93 -97 6 -260 c11 -472 26
-870 34 -902 10 -43 82 -126 152 -173 l58 -39 308 9 c170 5 328 12 350 16 36
5 56 20 138 103 l97 98 -10 304 c-6 167 -16 426 -21 574 -6 149 -10 280 -10
292 0 26 -202 204 -228 201 -9 0 -143 -5 -297 -9z m318 -39 c7 -5 49 -41 95
-81 l82 -71 -2 -81 -2 -82 -3 69 c-3 55 -8 73 -25 88 -11 9 -24 15 -29 12 -5
-3 -6 2 -3 11 5 11 2 14 -10 9 -12 -4 -15 -2 -11 9 4 8 -1 17 -9 20 -9 4 -16
13 -16 21 0 8 -4 17 -8 20 -13 8 -7 -31 7 -48 8 -9 9 -16 4 -16 -14 0 -33 22
-33 39 0 15 -14 17 -75 12 -8 0 -15 -8 -15 -16 0 -12 -16 -15 -80 -15 -75 0
-80 1 -80 21 0 19 -4 21 -31 15 -17 -3 -53 -6 -80 -6 -46 0 -49 -2 -49 -25 0
-22 -4 -25 -40 -25 -36 0 -40 3 -40 25 0 14 -3 25 -7 25 -87 6 -105 6 -90 3
13 -3 17 -15 17 -44 0 -39 0 -39 -40 -39 -29 0 -40 4 -40 15 0 11 -11 15 -39
15 -22 0 -41 5 -43 12 -3 8 -12 4 -26 -10 -12 -12 -29 -22 -37 -22 -8 0 -15
-6 -16 -12 0 -10 -2 -10 -6 0 -7 17 -23 15 -23 -3 0 -7 -8 -18 -17 -24 -13 -7
-20 -27 -24 -73 l-6 -63 -1 64 c-2 57 1 67 27 96 22 25 32 30 40 22 9 -9 11
-8 6 5 -5 11 8 32 42 67 l48 50 255 9 c366 13 419 13 433 2z m-286 -386 c18
-14 33 -32 33 -40 0 -7 4 -14 9 -14 5 0 12 -95 15 -212 4 -117 9 -256 12 -309
l5 -96 -34 -37 c-28 -29 -42 -36 -71 -36 -42 0 -91 40 -100 81 -10 47 -22 604
-14 629 21 61 89 77 145 34z"/>
<path d="M5939 3129 c-4 -10 -20 -639 -25 -960 l-6 -356 33 -12 c34 -12 198
-15 272 -5 l45 6 6 207 c8 257 16 361 27 361 11 0 43 -35 57 -63 41 -85 117
-249 132 -287 10 -25 27 -63 38 -85 11 -22 27 -56 36 -75 29 -62 39 -69 117
-81 77 -12 256 -7 269 8 4 4 12 242 19 528 6 286 14 579 17 651 l6 131 -68 6
c-38 4 -117 7 -175 7 l-107 0 -7 -37 c-4 -21 -9 -128 -11 -238 -2 -110 -7
-210 -9 -223 -11 -46 -16 -38 -175 321 l-84 187 -75 0 c-42 0 -133 3 -203 7
-71 3 -129 4 -129 2z m339 -36 c61 -7 37 33 197 -329 53 -121 103 -232 111
-248 8 -16 14 -33 14 -38 0 -5 8 -26 19 -48 l18 -38 -27 -5 c-15 -3 -56 -2
-91 3 -104 15 -118 14 -125 -15 -6 -23 -13 -12 -59 82 -29 59 -55 118 -59 131
-14 42 -26 22 -27 -45 -1 -38 -2 -72 -4 -78 -1 -5 -3 -30 -4 -55 -2 -38 -4
-41 -11 -22 -13 31 -67 32 -72 0 -3 -21 -4 -21 -21 -4 -12 13 -35 18 -80 19
-44 2 -64 6 -69 17 -5 11 -7 9 -7 -7 -1 -13 4 -23 9 -23 6 0 10 -10 10 -22 -1
-21 -2 -21 -11 -5 -6 9 -14 15 -20 12 -10 -7 -13 603 -3 679 l7 46 126 0 c69
0 150 -3 179 -7z m667 -295 c-9 -344 -16 -434 -32 -431 -6 2 -15 -7 -18 -19
-10 -29 -26 -2 -18 29 4 20 1 23 -23 23 -16 0 -60 -5 -99 -10 -48 -7 -71 -7
-73 0 -2 5 -10 10 -18 10 -21 0 -26 38 -20 146 3 55 5 197 6 317 l0 217 151 0
152 0 -8 -282z"/>
<path d="M8360 2714 c-44 -24 -99 -88 -86 -101 3 -3 6 -2 6 4 0 14 41 59 65
70 46 22 179 15 336 -17 135 -28 192 -40 374 -80 94 -21 203 -7 257 33 40 29
30 30 -27 2 -26 -14 -63 -25 -80 -25 -18 0 -120 20 -226 44 -212 49 -480 96
-537 96 -21 0 -57 -12 -82 -26z"/>
<path d="M8597 2343 c-2 -5 -5 -33 -6 -63 -1 -42 1 -51 9 -38 13 21 73 38 122
33 41 -4 114 -18 235 -46 91 -21 262 -26 328 -8 67 17 192 71 222 95 20 16 6
12 -48 -15 -166 -80 -252 -81 -589 -6 -259 58 -267 59 -273 48z"/>
<path d="M8462 1419 c-32 -63 -36 -76 -17 -52 14 18 43 38 63 45 28 10 228 14
824 18 l788 5 27 28 28 27 -770 0 c-424 0 -799 3 -835 6 l-65 6 -43 -83z"/>
</g>
</svg>
